<?xml version="1.0" encoding="utf-8"?>
<!-- Generator: Adobe Illustrator 25.4.1, SVG Export Plug-In . SVG Version: 6.00 Build 0)  -->
<svg version="1.1" id="Ebene_1" xmlns="http://www.w3.org/2000/svg" xmlns:xlink="http://www.w3.org/1999/xlink" x="0px" y="0px"
	 viewBox="0 0 664.64 47.8" style="enable-background:new 0 0 664.64 47.8;" xml:space="preserve">
<style type="text/css">
	.st0{fill:#48C47E;}
	.st1{fill:#008244;}
</style>
<path class="st0" d="M626.47,46.99V23.63c0-1.39-0.02-2.95-0.07-4.68c-0.04-1.73-0.09-3.43-0.13-5.12
	c-0.05-1.68-0.09-3.13-0.13-4.34h0.54c0.27,1.03,0.57,2.24,0.91,3.64c0.34,1.39,0.67,2.75,1.01,4.07c0.34,1.32,0.64,2.46,0.91,3.4
	l7.61,26.39h8.08l7.61-26.46c0.31-1.12,0.67-2.47,1.08-4.04c0.4-1.57,0.78-3.03,1.14-4.38c0.36-1.35,0.58-2.22,0.67-2.62h0.54
	c0,0.27-0.03,1.14-0.1,2.62c-0.07,1.48-0.12,3.26-0.17,5.32c-0.05,2.06-0.07,4.13-0.07,6.19v23.36h8.75V0.81h-13.67l-7.27,25.65
	c-0.31,1.08-0.59,2.19-0.84,3.33c-0.25,1.14-0.46,2.21-0.64,3.2c-0.18,0.99-0.31,1.82-0.4,2.49h-0.54
	c-0.14-0.76-0.33-1.66-0.57-2.69c-0.25-1.03-0.51-2.11-0.78-3.23c-0.27-1.12-0.54-2.13-0.81-3.03l-7.27-25.72h-13.8v46.18H626.47z
	 M577.03,8.28h14.88c1.52,0,2.8,0.27,3.84,0.81c1.03,0.54,1.82,1.31,2.36,2.32c0.54,1.01,0.81,2.26,0.81,3.74
	c0,2.29-0.61,4.08-1.82,5.38c-1.21,1.3-2.94,1.95-5.18,1.95h-14.88V8.28z M577.03,46.99V29.82h14.34l8.48,17.17h9.56l-9.56-18.65
	c2.6-1.17,4.58-2.9,5.92-5.22c1.35-2.31,2.02-4.97,2.02-7.98c0-2.92-0.56-5.45-1.68-7.61c-1.12-2.15-2.8-3.81-5.05-4.98
	c-2.24-1.17-5.07-1.75-8.48-1.75h-24.3v46.18H577.03z M535.41,17.23c0.22-0.58,0.52-1.39,0.88-2.42c0.36-1.03,0.73-2.13,1.11-3.3
	c0.38-1.17,0.71-2.2,0.98-3.1h0.34c0.22,0.67,0.47,1.44,0.74,2.29s0.54,1.69,0.81,2.52c0.27,0.83,0.53,1.59,0.77,2.29
	c0.25,0.7,0.46,1.27,0.64,1.72l4.65,12.52h-15.55L535.41,17.23z M524.3,46.99l3.7-9.83h21.14l3.7,9.83h9.49L544.29,0.81h-11.04
	l-17.97,46.18H524.3z M477.7,46.99V27.13h21.54v19.86h8.75V0.81h-8.75v18.78H477.7V0.81h-8.75v46.18H477.7z M431.45,8.28h13.67
	c1.57,0,2.87,0.29,3.91,0.88c1.03,0.58,1.82,1.41,2.36,2.49c0.54,1.08,0.81,2.4,0.81,3.97c0,2.33-0.62,4.16-1.85,5.49
	c-1.23,1.33-2.97,1.99-5.22,1.99h-13.67V8.28z M431.45,46.99V30.56h13.93c3.46,0,6.34-0.62,8.65-1.85c2.31-1.23,4.05-2.97,5.22-5.22
	c1.17-2.24,1.75-4.87,1.75-7.88c0-3.05-0.56-5.68-1.68-7.88c-1.12-2.2-2.79-3.9-5.01-5.12c-2.22-1.21-5.04-1.82-8.45-1.82H422.7
	v46.18H431.45z"/>
<path class="st1" d="M388.48,17.23c0.22-0.58,0.52-1.39,0.88-2.42c0.36-1.03,0.73-2.13,1.11-3.3c0.38-1.17,0.71-2.2,0.98-3.1h0.34
	c0.22,0.67,0.47,1.44,0.74,2.29c0.27,0.85,0.54,1.69,0.81,2.52c0.27,0.83,0.53,1.59,0.77,2.29c0.25,0.7,0.46,1.27,0.64,1.72
	l4.65,12.52h-15.55L388.48,17.23z M377.38,46.99l3.7-9.83h21.14l3.7,9.83h9.49L397.37,0.81h-11.04l-17.97,46.18H377.38z
	 M365.47,46.99v-7.61h-23.16V0.81h-8.75v46.18H365.47z M297.41,8.28h13.67c1.57,0,2.87,0.29,3.9,0.88c1.03,0.58,1.82,1.41,2.36,2.49
	c0.54,1.08,0.81,2.4,0.81,3.97c0,2.33-0.62,4.16-1.85,5.49c-1.24,1.33-2.97,1.99-5.22,1.99h-13.67V8.28z M297.41,46.99V30.56h13.94
	c3.45,0,6.34-0.62,8.65-1.85c2.31-1.23,4.05-2.97,5.22-5.22c1.17-2.24,1.75-4.87,1.75-7.88c0-3.05-0.56-5.68-1.68-7.88
	c-1.12-2.2-2.79-3.9-5.02-5.12c-2.22-1.21-5.04-1.82-8.45-1.82h-23.16v46.18H297.41z M278.38,46.99v-7.47h-27.67V27.13h24.3v-7.47
	h-24.3V8.28h27.27V0.81h-36.02v46.18H278.38z M201.21,46.99V27.13h21.54v19.86h8.75V0.81h-8.75v18.78h-21.54V0.81h-8.75v46.18
	H201.21z M172.86,45.88c3.07-1.28,5.51-3.23,7.3-5.86c1.79-2.62,2.69-5.96,2.69-10h-8.62c0,2.25-0.48,4.14-1.45,5.69
	c-0.97,1.55-2.32,2.72-4.07,3.5c-1.75,0.79-3.79,1.18-6.13,1.18c-3.1,0-5.64-0.58-7.64-1.75c-2-1.17-3.48-2.92-4.44-5.25
	c-0.97-2.33-1.45-5.25-1.45-8.75v-1.48c0-3.45,0.48-6.35,1.45-8.68c0.96-2.33,2.46-4.09,4.48-5.28c2.02-1.19,4.55-1.78,7.61-1.78
	c2.2,0,4.15,0.4,5.86,1.21c1.71,0.81,3.04,1.99,4.01,3.53c0.96,1.55,1.45,3.44,1.45,5.69h8.95c0-4.04-0.91-7.37-2.73-10
	c-1.82-2.62-4.26-4.59-7.34-5.89C169.72,0.65,166.27,0,162.46,0c-7.05,0-12.54,1.95-16.49,5.86c-3.95,3.9-5.92,9.92-5.92,18.04
	c0,5.56,0.89,10.11,2.66,13.63c1.77,3.52,4.33,6.12,7.67,7.78c3.34,1.66,7.37,2.49,12.08,2.49
	C166.32,47.8,169.78,47.16,172.86,45.88"/>
<path class="st0" d="M78.28,46.75c12.77,0,23.12-10.35,23.12-23.12c0-12.77-10.35-23.12-23.12-23.12S55.16,10.85,55.16,23.63v23.12
	H78.28z"/>
<path class="st1" d="M23.12,0.5C10.35,0.5,0,10.85,0,23.63C0,36.4,10.35,46.75,23.12,46.75h23.12V0.5H23.12z"/>
</svg>
